<mxfile host="app.diagrams.net" modified="2020-09-01T03:49:19.924Z" agent="5.0 (Linux; Android 10; CPH1955) AppleWebKit/537.36 (KHTML, like Gecko) Chrome/84.0.4147.125 Mobile Safari/537.36" etag="KfTJyFQEEK_-tcWbqLTC" version="13.6.6" type="github">
  <diagram id="pv6pgkgZNlNdG-Z5RFKd" name="Page-1">
    <mxGraphModel dx="326" dy="661" grid="1" gridSize="10" guides="1" tooltips="1" connect="1" arrows="1" fold="1" page="1" pageScale="1" pageWidth="827" pageHeight="1169" math="0" shadow="0">
      <root>
        <mxCell id="zpC2MYF7p4ahxuZKKvZX-0" />
        <mxCell id="zpC2MYF7p4ahxuZKKvZX-1" parent="zpC2MYF7p4ahxuZKKvZX-0" />
      </root>
    </mxGraphModel>
  </diagram>
</mxfile>
